<?xml version="1.0" encoding="utf-8"?>
<svg viewBox="0 0 500 500" xmlns="http://www.w3.org/2000/svg" xmlns:bx="https://boxy-svg.com">
  <defs>
    <bx:grid x="-0.436" y="0.174" width="100" height="100"/>
  </defs>
  <path d="M 231.994 161.37 Q 231.994 156.725 236.223 154.045 Q 240.739 151.183 246.644 152.912 Q 253.207 154.834 257.368 161.37 Q 262.043 168.713 261.294 178.286 Q 260.456 188.99 253.139 197.995 Q 245.036 207.967 231.994 212.118 Q 217.694 216.67 202.391 212.644 Q 185.764 208.27 173.395 195.202 Q 160.062 181.116 155.871 161.37 Q 151.385 140.229 158.745 119.08 Q 166.579 96.567 185.475 80.796 Q 205.489 64.092 231.994 59.873 Q 259.949 55.424 286.972 66.146 Q 315.366 77.413 334.543 102.163 Q 354.627 128.086 358.865 161.37 Q 363.291 196.13 349.193 229.035 Q 334.507 263.311 303.888 285.894 Q 272.065 309.364 231.994 313.615 Q 222.643 314.608 213.199 314.439" style="fill: none; stroke: rgb(0, 204, 255); stroke-width: 17px;" bx:shape="spiral 231.994 161.37 0 154.219 0 547 1@e45f34f7"/>
  <path d="M -240.802 -242.761 Q -240.802 -247.384 -236.593 -250.051 Q -232.098 -252.9 -226.221 -251.179 Q -219.689 -249.266 -215.548 -242.761 Q -210.895 -235.452 -211.641 -225.925 Q -212.475 -215.272 -219.757 -206.31 Q -227.821 -196.384 -240.802 -192.253 Q -255.034 -187.722 -270.265 -191.729 Q -286.813 -196.082 -299.124 -209.089 Q -312.394 -223.108 -316.565 -242.761 Q -321.03 -263.802 -313.705 -284.851 Q -305.907 -307.258 -287.101 -322.954 Q -267.182 -339.579 -240.802 -343.778 Q -212.98 -348.206 -186.084 -337.535 Q -157.824 -326.321 -138.738 -301.688 Q -118.749 -275.888 -114.531 -242.761 Q -113.4 -233.88 -113.537 -224.875" style="fill: none; stroke: rgb(0, 204, 255); stroke-width: 17px;" transform="matrix(0, 1, -1, 0, -11.247409, 402.542419)" bx:shape="spiral -240.802 -242.761 0 128.516 0 458 1@554f6e27"/>
  <path d="M -232.807 -161.18 Q -232.807 -165.812 -228.589 -168.485 Q -224.085 -171.339 -218.197 -169.615 Q -211.651 -167.699 -207.501 -161.18 Q -202.839 -153.856 -203.587 -144.31 Q -204.422 -133.635 -211.719 -124.654 Q -219.8 -114.709 -232.807 -110.569 Q -247.068 -106.029 -262.33 -110.044 Q -278.912 -114.406 -291.248 -127.439 Q -304.545 -141.487 -308.724 -161.18 Q -313.198 -182.264 -305.858 -203.356 Q -298.045 -225.808 -279.201 -241.536 Q -259.241 -258.195 -232.807 -262.402 Q -204.928 -266.84 -177.978 -256.146 Q -149.66 -244.91 -130.536 -220.226 Q -110.505 -194.374 -106.279 -161.18 Q -101.865 -126.514 -115.925 -93.698 Q -130.572 -59.515 -161.108 -36.993 Q -192.844 -13.586 -232.807 -9.346 Q -274.256 -4.948 -312.941 -22.383 Q -352.992 -40.433 -378.909 -76.828 Q -405.696 -114.444 -409.946 -161.18 Q -410.51 -167.379 -410.637 -173.615" style="fill: none; stroke: rgb(0, 204, 255); stroke-width: 17px;" transform="matrix(-1, 0, 0, -1, 0, 0)" bx:shape="spiral -232.807 -161.18 0 178.264 0 634 1@0b1f8c57"/>
  <path d="M 235.483 246.854 Q 235.483 242.192 239.728 239.502 Q 244.26 236.63 250.187 238.365 Q 256.774 240.294 260.95 246.854 Q 265.642 254.224 264.89 263.832 Q 264.049 274.575 256.706 283.613 Q 248.573 293.622 235.483 297.789 Q 221.131 302.357 205.771 298.317 Q 189.084 293.927 176.669 280.81 Q 163.287 266.673 159.081 246.854 Q 154.578 225.635 161.965 204.408 Q 169.828 181.813 188.793 165.984 Q 208.88 149.219 235.483 144.985 Q 263.54 140.519 290.662 151.281 Q 319.161 162.588 338.408 187.43 Q 358.566 213.448 362.82 246.854 Q 367.262 281.741 353.112 314.767 Q 338.372 349.169 307.641 371.834 Q 275.701 395.391 235.483 399.658 Q 228.791 400.368 222.042 400.486" style="fill: none; stroke: rgb(0, 204, 255); stroke-width: 17px;" transform="matrix(0.000001, -1, 1, 0.000001, -14.158683, 396.315704)" bx:shape="spiral 235.483 246.854 0 154.219 0 545 1@4daf7783"/>
  <path style="stroke: rgb(0, 204, 255); stroke-width: 17px; stroke-linecap: round; fill: rgba(255, 255, 255, 0);" d="M 213.385 314.482 C 159.765 315.511 148.949 330.435 127.47 362.298 C 105.165 395.095 57.86 408.446 1.863 416.855"/>
  <path style="fill: rgb(216, 216, 216); stroke: rgb(0, 0, 0);" d="M 551.955 309.081"/>
  <path style="stroke: rgb(0, 204, 255); stroke-width: 17px; stroke-linecap: round; fill: rgba(255, 255, 255, 0);" d="M 214.591 289.035 C 160.997 287.832 128.504 306.756 114.146 337.724 C 93.702 369.536 49.598 382.829 -1.727 390.985"/>
  <path style="fill: rgb(216, 216, 216); stroke: rgb(0, 0, 0);" d="M -49.53 142.072"/>
  <path style="stroke-width: 17px; stroke: rgb(0, 204, 255); stroke-linecap: round; fill: rgba(255, 255, 255, 0);" d="M 386.305 174.139 C 387.161 194.818 389.753 220.865 393.616 248.331 C 400.837 299.676 411.151 352.092 423.983 369.472 C 448.757 409.448 508.868 414.545 533.351 414.502"/>
  <path style="stroke-width: 17px; stroke: rgb(0, 204, 255); stroke-linecap: round; fill: rgba(255, 255, 255, 0);" d="M 410.558 173.074 C 411.279 193.082 415.328 220.747 419.191 248.213 C 426.412 299.558 436.399 336.987 445.876 354.604 C 474.047 391.71 513.194 388.77 534.156 389.434"/>
</svg>